<svg xmlns="http://www.w3.org/2000/svg" viewBox="0 0 1026.53 977.62"><defs><style>.cls-1{fill:#edddc4;}</style></defs><title>Asset 2</title><g id="Layer_2" data-name="Layer 2"><g id="Layer_1-2" data-name="Layer 1"><path class="cls-1" d="M496.45,14.06c9.25-18.75,24.38-18.75,33.63,0L660.76,278.83c9.25,18.74,33.74,36.53,54.42,39.54l292.19,42.46c20.69,3,25.36,17.4,10.4,32L806.33,598.91c-15,14.59-24.32,43.38-20.78,64l49.91,291c3.53,20.6-8.71,29.5-27.21,19.77L546.9,836.28c-18.5-9.73-48.77-9.73-67.27,0L218.28,973.67c-18.49,9.73-30.74.83-27.21-19.77l49.92-291c3.53-20.6-5.83-49.39-20.79-64L8.76,392.82c-15-14.59-10.28-29,10.4-32l292.19-42.46c20.69-3,45.18-20.8,54.42-39.54Z"/></g></g></svg>